<svg viewBox="0 0 360 360" xmlns="http://www.w3.org/2000/svg">
  <defs>
    <linearGradient id="bgRed4" x1="0%" y1="0%" x2="100%" y2="100%">
      <stop offset="0%" stop-color="#FF3B2E"/>
      <stop offset="100%" stop-color="#C10F06"/>
    </linearGradient>
    <linearGradient id="yellowGrad4" x1="0%" y1="0%" x2="100%" y2="100%">
      <stop offset="0%" stop-color="#FFEB6B"/>
      <stop offset="100%" stop-color="#FFC400"/>
    </linearGradient>
  </defs>
  <rect x="20" y="20" width="320" height="320" rx="72" fill="url(#bgRed4)"/>
  <g opacity="0.18" stroke="#FFFFFF" stroke-width="9" stroke-linecap="round">
    <line x1="225" y1="70" x2="290" y2="70"/>
    <line x1="245" y1="95" x2="296" y2="95"/>
    <line x1="265" y1="120" x2="298" y2="120"/>
  </g>
  <g transform="translate(180,180)">
    <path d="M-88 -75 L-38 -75 C6 -75 38 -43 38 0 C38 43 6 75 -38 75 L-88 75 Z M-53 -43 L-53 43 L-38 43 C-8 43 5 21 5 0 C5 -21 -8 -43 -38 -43 Z" fill="url(#yellowGrad4)" fill-rule="evenodd"/>
    <path d="M26 -75 L108 -75 L108 -43 L85 -43 L85 75 L50 75 L50 -43 L26 -43 Z" fill="#FFFFFF"/>
  </g>
  <g transform="translate(180,258)">
    <path d="M-95 12 C-50 -12 50 -12 95 12 L82 28 C44 8 -44 8 -82 28 Z" fill="url(#yellowGrad4)"/>
  </g>
</svg>